<?xml version="1.0" standalone="no"?>
<!DOCTYPE svg PUBLIC "-//W3C//DTD SVG 20010904//EN"
 "http://www.w3.org/TR/2001/REC-SVG-20010904/DTD/svg10.dtd">
<svg version="1.0" xmlns="http://www.w3.org/2000/svg"
 width="1080.000000pt" height="1080.000000pt" viewBox="0 0 1080.000000 1080.000000"
 preserveAspectRatio="xMidYMid meet">

<g transform="translate(0.000000,1080.000000) scale(0.100000,-0.100000)"
fill="#000000" stroke="none">
<path d="M0 5400 l0 -5400 5400 0 5400 0 0 5400 0 5400 -5400 0 -5400 0 0
-5400z m5810 3141 c337 -50 609 -149 929 -338 194 -115 337 -227 516 -407 164
-164 242 -260 354 -435 115 -179 168 -288 157 -317 -11 -29 -39 3 -108 120
-201 341 -368 542 -643 771 -92 77 -202 157 -268 197 -315 187 -590 289 -937
345 -148 24 -191 27 -420 27 -261 1 -281 -1 -552 -50 -418 -76 -821 -284
-1186 -613 -198 -179 -450 -514 -562 -747 -130 -272 -194 -483 -254 -838 -16
-90 -38 -140 -59 -133 -20 6 -19 61 3 179 12 62 26 133 30 158 21 112 82 325
123 427 109 267 175 388 338 614 110 152 345 399 488 513 371 296 786 471
1251 530 184 23 195 24 440 21 160 -3 264 -9 360 -24z m-559 -403 c6 -24 14
-47 19 -53 19 -24 109 -208 115 -235 14 -64 -30 -58 -65 8 -51 98 -60 120 -60
157 0 56 -10 68 -43 56 -15 -6 -27 -14 -27 -18 -2 -67 -25 -154 -52 -196 -53
-83 -78 -98 -78 -49 0 27 40 145 93 277 13 33 27 68 30 78 4 10 17 17 31 17
21 0 27 -7 37 -42z m337 -39 c2 -36 -1 -115 -6 -174 -7 -87 -13 -111 -28 -122
-10 -7 -23 -12 -29 -10 -18 7 0 335 21 369 3 5 13 8 22 6 13 -3 18 -17 20 -69z
m-734 -1 c9 -12 16 -30 16 -40 0 -15 -4 -16 -26 -8 -14 6 -46 10 -71 10 -38 0
-50 -5 -79 -34 -29 -29 -34 -41 -34 -82 0 -72 18 -124 53 -157 28 -26 37 -29
83 -25 36 3 63 13 86 29 18 14 41 28 51 32 28 10 21 -35 -10 -65 -37 -35 -73
-48 -135 -48 -93 0 -159 59 -183 164 -17 74 -6 129 36 173 66 69 181 97 213
51z m1124 8 c62 -32 111 -119 112 -197 0 -50 -40 -126 -88 -166 -37 -31 -144
-32 -202 -3 -72 37 -112 127 -96 214 9 46 99 141 147 154 50 15 96 14 127 -2z
m-643 -873 c64 -23 125 -84 167 -170 32 -65 33 -73 33 -183 0 -138 -11 -168
-96 -251 -92 -91 -239 -152 -239 -99 0 20 14 48 68 135 88 140 132 252 132
330 0 44 -4 57 -22 69 -51 36 -97 11 -224 -119 -142 -146 -220 -262 -366 -545
-74 -144 -71 -138 -175 -430 -108 -306 -132 -408 -133 -555 0 -116 14 -156 70
-193 66 -45 177 -14 314 87 112 83 310 318 386 458 46 85 82 83 82 -5 -1 -81
-72 -273 -126 -340 -12 -15 -35 -47 -51 -72 -71 -106 -234 -255 -337 -308 -66
-33 -123 -33 -198 0 -194 87 -324 236 -345 394 -5 31 0 93 10 163 19 124 15
144 -27 123 -13 -6 -66 -29 -118 -51 -266 -111 -712 -112 -1130 -5 -91 24
-369 85 -455 101 -113 20 -399 20 -490 0 -93 -21 -305 -97 -380 -137 -136 -72
-274 -197 -355 -323 -52 -79 -52 -117 0 -131 45 -12 137 -72 156 -101 8 -13
18 -39 21 -59 5 -34 2 -41 -44 -85 -58 -56 -91 -65 -153 -42 -55 20 -104 87
-114 155 -9 61 -29 79 -75 71 -20 -3 -47 -15 -61 -25 -38 -30 -72 -48 -100
-51 -40 -6 -39 34 1 72 43 40 81 59 159 79 56 14 69 22 95 57 223 305 319 391
554 497 112 50 268 100 362 116 51 8 130 11 235 7 158 -5 182 -9 444 -69 150
-34 163 -37 303 -67 54 -11 102 -23 107 -26 19 -12 302 -35 426 -35 156 0 334
21 424 51 77 25 223 93 237 111 6 7 27 58 46 113 95 265 119 327 155 410 45
102 113 217 233 396 174 259 297 401 400 462 73 43 116 47 194 20z m4552 -439
c20 -52 -107 -176 -262 -257 -166 -87 -324 -117 -612 -117 -210 0 -324 16
-605 80 -356 82 -386 88 -516 106 -192 26 -361 16 -522 -31 -147 -42 -263 -95
-363 -165 -143 -99 -299 -273 -313 -349 -8 -41 5 -53 84 -78 38 -12 65 -30 94
-61 38 -41 40 -47 35 -90 -4 -39 -12 -53 -50 -89 -53 -50 -91 -56 -147 -22
-73 44 -116 103 -123 171 -5 47 -14 58 -43 58 -27 0 -138 -67 -214 -129 -70
-58 -166 -123 -275 -186 -159 -93 -158 -90 -129 -217 13 -59 14 -81 4 -132
-42 -218 -210 -350 -412 -324 -105 13 -173 62 -206 145 l-23 59 20 54 c11 30
40 78 65 105 43 50 221 187 283 219 48 24 51 54 20 176 -41 168 -47 200 -55
300 -13 163 0 197 98 260 59 38 103 40 126 4 16 -24 16 -30 -6 -105 -25 -89
-24 -150 10 -314 25 -123 42 -169 63 -173 19 -4 156 72 287 159 126 83 218
133 311 169 46 17 92 39 103 48 10 10 50 63 88 119 158 233 375 381 688 470
121 35 130 36 295 36 175 0 331 -18 530 -62 127 -28 255 -57 360 -81 290 -67
687 -67 895 0 103 34 226 108 312 188 43 39 82 72 88 72 6 0 13 -7 17 -16z
m-1899 -533 c23 -14 32 -81 32 -246 0 -433 -77 -811 -240 -1169 -86 -188 -242
-431 -372 -577 -59 -67 -127 -156 -152 -199 -33 -57 -52 -79 -68 -82 -19 -2
-23 -9 -23 -37 0 -69 55 -63 139 14 28 25 36 41 36 66 0 27 11 46 54 92 64 70
89 73 94 12 2 -31 -4 -51 -30 -91 -67 -105 -136 -164 -258 -223 -36 -17 -81
-40 -100 -51 -19 -11 -45 -20 -57 -20 -22 0 -63 -43 -63 -66 0 -8 -15 -27 -32
-43 -43 -38 -29 -51 25 -23 88 45 228 67 255 40 45 -45 -40 -92 -193 -105 -57
-5 -158 -6 -235 -1 -211 14 -209 14 -242 -21 -24 -26 -37 -31 -74 -31 -24 0
-44 -4 -44 -9 0 -10 121 -64 128 -56 3 3 -3 12 -14 19 -10 8 -16 18 -12 21 7
7 20 4 48 -14 8 -6 27 -12 41 -15 39 -8 116 -71 123 -101 11 -42 -10 -58 -62
-51 -25 3 -59 15 -77 26 -18 11 -39 20 -47 20 -24 0 -110 49 -145 82 -33 32
-140 77 -203 86 -19 2 -40 9 -47 14 -7 6 -26 6 -45 2 -18 -5 -60 -9 -93 -9
-53 0 -60 -2 -60 -20 0 -14 11 -22 45 -32 52 -15 65 -27 74 -67 6 -24 5 -27
-6 -19 -7 6 -35 9 -66 6 -50 -5 -53 -7 -50 -31 2 -22 11 -28 48 -37 52 -13 75
-50 50 -81 -18 -21 -105 -15 -165 11 -22 10 -58 17 -81 16 -27 -2 -71 10 -133
35 -87 34 -96 36 -159 29 -66 -8 -168 -9 -327 -4 -77 3 -83 1 -127 -29 -26
-18 -53 -32 -60 -32 -7 0 -63 -10 -125 -21 -116 -22 -171 -20 -193 7 -10 11
-10 21 -2 39 9 19 21 26 62 31 51 7 73 25 53 45 -5 5 -34 18 -64 28 -38 14
-55 25 -57 39 -4 28 32 46 85 43 23 -1 44 3 47 8 10 16 -26 30 -98 37 l-66 7
0 -31 c0 -22 -6 -32 -20 -37 -35 -11 -22 -65 16 -65 20 0 23 -3 15 -18 -11
-22 -138 -56 -175 -46 -19 4 -26 13 -26 30 0 29 64 102 97 110 40 10 20 29
-30 27 -64 -2 -138 -28 -184 -65 -63 -50 -115 -80 -163 -94 -25 -7 -64 -20
-87 -28 -44 -16 -68 -14 -77 9 -11 29 10 58 68 96 49 32 67 39 93 34 38 -7
113 15 113 33 0 7 -15 19 -32 27 -18 7 -43 23 -55 34 -38 36 -72 44 -115 26
-24 -9 -70 -15 -124 -15 l-85 0 -17 39 c-9 22 -27 45 -39 50 -35 16 -57 58
-54 104 l2 41 -26 -24 c-25 -24 -27 -24 -53 -8 -52 32 -142 78 -153 78 -40 0
-189 139 -237 220 -17 30 -37 62 -44 71 -19 27 -3 49 37 49 31 0 46 -9 101
-64 61 -59 64 -64 49 -80 -9 -9 -28 -16 -42 -16 -21 0 -24 -2 -13 -15 7 -8 21
-15 32 -15 10 0 40 -20 66 -44 52 -47 86 -69 96 -59 19 19 3 68 -37 116 -24
29 -50 68 -57 87 -18 47 -42 82 -110 160 -232 268 -382 535 -495 880 -15 47
-31 90 -35 95 -4 6 -14 33 -23 62 -12 45 -13 55 -1 70 13 17 15 17 33 -4 10
-12 37 -77 60 -145 131 -383 254 -613 481 -898 36 -45 90 -114 120 -153 66
-84 102 -103 132 -66 15 20 17 34 12 79 -3 30 -14 71 -24 90 -46 90 -60 468
-18 494 31 19 67 -20 100 -109 16 -44 36 -96 43 -115 8 -19 14 -63 15 -98 0
-55 3 -64 23 -72 24 -9 37 2 80 70 17 26 31 36 55 38 27 3 34 -1 42 -24 12
-30 6 -56 -20 -94 -23 -33 -36 -210 -16 -210 7 0 42 -13 78 -29 68 -31 88 -56
88 -112 0 -21 -11 -40 -35 -65 -50 -50 -77 -58 -110 -32 -22 17 -26 27 -22 57
3 20 8 47 12 60 8 24 7 24 -36 18 -25 -3 -52 -9 -60 -12 -11 -4 -25 6 -42 29
-23 30 -25 38 -16 65 6 18 24 38 39 46 19 10 30 25 34 49 4 20 13 41 20 48 19
19 38 59 32 65 -7 7 -66 -16 -89 -35 -9 -8 -33 -43 -52 -78 -34 -60 -35 -65
-24 -109 9 -35 9 -49 0 -58 -13 -13 -15 -93 -2 -102 5 -3 22 6 37 20 39 36 62
33 70 -9 9 -49 0 -58 -60 -55 l-51 3 -3 -39 c-1 -22 2 -47 8 -55 8 -13 13 -11
32 12 23 27 96 68 121 68 8 0 22 -9 33 -21 10 -11 33 -27 51 -34 17 -7 39 -27
48 -44 10 -19 23 -31 36 -31 11 0 35 -16 52 -36 38 -42 115 -88 176 -104 43
-11 45 -11 68 19 14 17 32 31 41 31 36 0 139 -58 169 -96 30 -37 61 -42 35 -6
-7 9 -24 35 -39 57 -31 48 -103 104 -158 123 -22 7 -49 22 -60 31 -28 26 -60
41 -85 41 -17 0 -21 -5 -18 -27 2 -19 10 -29 23 -31 43 -7 73 -24 84 -49 8
-17 8 -30 2 -36 -21 -21 -121 26 -121 58 0 14 -30 25 -71 25 -14 0 -34 8 -45
18 -10 10 -34 28 -51 40 -40 28 -44 64 -9 87 22 15 29 14 82 -5 32 -11 69 -20
83 -20 67 0 327 -136 411 -215 19 -18 45 -38 57 -44 31 -16 88 -14 103 4 10
12 7 20 -17 42 -44 42 -119 153 -133 198 -7 22 -24 56 -37 77 -15 22 -23 47
-21 65 3 25 6 28 40 27 42 -1 97 -40 183 -129 46 -47 112 -162 130 -225 4 -14
23 -42 41 -63 19 -20 34 -46 34 -57 0 -18 -7 -20 -66 -20 -71 0 -98 -9 -114
-41 -9 -16 -8 -26 5 -45 16 -24 20 -25 81 -19 52 6 69 4 90 -10 35 -23 51 -6
24 25 -25 29 -25 31 5 64 29 31 33 76 10 119 -11 21 -12 34 -5 48 8 14 5 29
-10 58 -21 42 -27 125 -10 136 19 12 48 -6 73 -44 14 -20 47 -63 74 -93 64
-74 113 -173 113 -227 0 -58 31 -101 72 -101 37 0 68 25 68 55 0 82 96 253
212 376 61 64 98 47 78 -36 -5 -22 -10 -52 -10 -67 0 -15 -12 -53 -26 -83 -19
-44 -23 -62 -16 -83 12 -37 43 -35 62 4 8 17 28 42 44 56 21 18 30 35 33 68 8
82 35 121 171 254 87 84 103 93 137 78 29 -13 35 -61 10 -82 -8 -7 -15 -20
-15 -30 0 -36 -62 -138 -126 -208 -55 -60 -64 -75 -54 -87 25 -30 83 -18 156
31 38 26 80 57 94 69 65 57 238 141 272 132 11 -3 34 3 51 13 18 10 49 21 69
24 20 4 46 14 57 24 18 15 19 21 9 59 -10 34 -9 45 5 66 17 26 99 85 150 108
24 11 27 17 27 63 0 39 -4 54 -19 63 -12 7 -21 28 -24 55 -4 24 -9 59 -12 79
-14 74 47 73 105 -3 43 -55 59 -68 86 -68 20 0 22 5 27 108 4 88 11 125 40
207 42 119 57 133 96 89 35 -39 45 -112 36 -268 -6 -109 -33 -206 -58 -206 -5
0 -6 21 -3 48 12 97 18 232 12 267 -5 26 -12 35 -26 35 -25 0 -37 -45 -45
-182 l-7 -107 31 -46 c29 -43 31 -52 26 -104 -5 -43 -2 -64 12 -90 10 -19 23
-36 28 -38 6 -1 21 13 35 33 14 19 71 89 128 156 113 133 157 192 233 311 50
79 159 271 159 281 0 3 13 35 30 70 70 155 137 361 171 531 38 188 43 247 45
540 1 165 3 301 3 303 2 5 27 1 39 -7z m-4257 -2617 c77 -27 109 -48 109 -71
0 -24 -50 -36 -105 -25 -27 6 -75 16 -105 22 -30 6 -62 18 -72 27 -18 16 -24
53 -11 66 15 16 114 5 184 -19z m2483 -167 c43 -24 101 -110 91 -135 -4 -12
-19 -14 -78 -9 -39 3 -80 8 -89 12 -22 9 -23 31 -3 39 8 3 15 16 15 29 0 14
-7 30 -15 37 -8 7 -15 21 -15 31 0 27 44 25 94 -4z m-1686 -703 c12 -8 22 -21
22 -29 0 -8 -1 -15 -2 -15 -2 0 -25 7 -52 15 -27 8 -64 15 -83 15 -29 0 -33
-3 -33 -25 0 -25 48 -80 117 -132 17 -13 34 -34 37 -47 13 -54 -54 -143 -98
-131 -52 14 -116 50 -122 67 -10 31 4 34 50 9 52 -27 109 -26 114 2 7 36 -9
67 -46 91 -20 13 -52 37 -70 54 -27 25 -32 35 -26 59 8 35 50 81 78 86 32 6
88 -3 114 -19z m1777 1 c0 -5 -30 -14 -67 -19 -64 -9 -68 -11 -68 -35 0 -44
26 -71 68 -71 90 0 152 -43 152 -105 0 -27 -39 -71 -75 -85 -37 -14 -120 -21
-135 -11 -25 17 2 32 73 41 36 4 70 11 76 15 6 3 11 23 11 45 0 45 -7 49 -109
60 -60 6 -79 12 -93 30 -33 41 -23 70 41 123 28 23 42 27 80 25 25 -2 46 -7
46 -13z m-1472 -56 c62 -31 77 -48 77 -85 0 -70 -49 -134 -101 -134 -16 0 -29
3 -29 6 0 3 18 26 40 51 66 75 51 126 -38 127 l-47 1 -3 -59 c-2 -32 2 -72 8
-89 10 -29 8 -34 -34 -76 -25 -25 -48 -42 -52 -38 -4 3 -2 26 4 49 6 24 14 86
17 138 5 63 13 101 23 113 21 24 83 22 135 -4z m1152 -9 c0 -8 -17 -19 -40
-26 -48 -13 -54 -32 -26 -77 26 -43 45 -160 31 -188 -6 -11 -19 -19 -28 -17
-14 3 -18 20 -23 89 -7 99 -30 154 -75 179 -16 9 -30 24 -32 33 -3 13 8 17 50
20 99 7 143 3 143 -13z m-352 -28 c15 -14 32 -44 38 -66 12 -44 5 -66 -37
-122 -22 -29 -33 -34 -68 -34 -43 -1 -74 -20 -95 -58 -16 -31 -51 -29 -51 2 0
14 5 28 11 31 5 4 15 19 20 33 8 21 6 31 -12 55 -30 41 -23 133 11 156 68 46
136 47 183 3z m-425 9 c55 -28 79 -60 96 -125 19 -72 10 -119 -31 -158 -36
-35 -98 -61 -126 -53 -69 19 -98 40 -127 90 -17 29 -30 63 -30 75 0 27 80 152
112 174 30 21 61 20 106 -3z m464 -264 c6 -32 -1 -47 -23 -47 -12 0 -19 7 -19
19 0 11 -3 26 -6 35 -5 12 0 16 19 16 18 0 26 -6 29 -23z"/>
<path d="M5880 8073 c-8 -3 -36 -26 -62 -51 -84 -81 -89 -154 -15 -217 40 -35
45 -37 101 -33 47 4 62 9 78 29 70 87 74 125 23 205 -41 63 -79 84 -125 67z"/>
<path d="M1260 5095 c-11 -13 -8 -26 15 -75 16 -33 37 -62 46 -65 22 -7 89 4
106 17 19 15 -4 59 -53 101 -49 40 -92 48 -114 22z"/>
<path d="M6644 5915 c-8 -19 44 -102 78 -128 22 -16 33 -18 65 -10 46 10 55
40 27 90 -13 26 -29 37 -67 48 -64 19 -96 19 -103 0z"/>
<path d="M5656 5415 c-98 -52 -239 -180 -252 -229 -9 -36 11 -73 43 -79 32 -6
99 4 128 20 71 39 141 161 147 258 3 34 0 40 -17 43 -11 1 -33 -5 -49 -13z"/>
<path d="M3664 4488 c8 -140 17 -218 25 -218 11 0 81 75 81 87 0 6 -5 13 -11
15 -6 2 -13 28 -16 58 -6 81 -10 95 -39 129 -42 50 -47 41 -40 -71z"/>
<path d="M6840 4287 c0 -17 8 -25 33 -32 27 -8 33 -15 35 -43 2 -22 -3 -41
-14 -53 -20 -22 -8 -30 45 -26 39 2 57 -18 47 -56 -6 -25 -12 -29 -67 -41 -17
-4 -29 -14 -33 -29 -3 -13 -15 -34 -26 -47 -11 -13 -20 -33 -20 -45 0 -13 -7
-28 -15 -35 -26 -22 -18 -40 18 -40 31 0 35 4 56 56 26 62 58 89 95 80 21 -5
25 -2 31 24 9 40 -4 131 -20 150 -7 8 -18 34 -24 58 -7 23 -15 42 -20 42 -5 0
-25 14 -46 30 -46 37 -75 39 -75 7z"/>
<path d="M3910 4111 c0 -6 5 -13 10 -16 6 -3 10 1 10 9 0 9 -4 16 -10 16 -5 0
-10 -4 -10 -9z"/>
<path d="M6815 4036 c-29 -16 -41 -30 -43 -49 -3 -26 -1 -27 25 -21 44 11 109
96 71 93 -7 -1 -31 -11 -53 -23z"/>
<path d="M6990 3880 c-16 -34 -20 -54 -13 -61 27 -27 70 36 57 84 -3 15 -9 27
-13 27 -4 0 -18 -23 -31 -50z"/>
<path d="M6040 3903 c-53 -35 -123 -110 -146 -157 -26 -53 -24 -66 9 -66 32 0
44 11 62 53 8 20 21 37 28 37 12 1 97 123 97 140 0 15 -22 11 -50 -7z"/>
<path d="M4724 3886 c-7 -18 19 -66 67 -126 20 -25 44 -60 53 -78 17 -33 18
-33 37 -16 15 13 18 25 14 44 -14 54 -121 190 -151 190 -8 0 -17 -7 -20 -14z"/>
<path d="M6702 3865 c-14 -38 -63 -80 -132 -115 -25 -13 -64 -36 -87 -51 -23
-16 -51 -29 -63 -29 -17 0 -21 -5 -18 -27 3 -24 8 -29 37 -31 44 -4 72 3 97
26 11 11 32 26 46 33 42 23 188 168 188 187 0 10 -5 23 -12 30 -22 22 -44 13
-56 -23z"/>
<path d="M6432 3803 c-7 -2 -25 -18 -41 -34 -16 -16 -38 -29 -48 -29 -11 0
-42 -19 -70 -42 -28 -24 -59 -48 -68 -54 -22 -12 -12 -34 16 -34 11 0 41 11
67 24 26 13 59 26 74 30 15 3 33 16 39 29 7 12 24 33 39 47 34 30 46 70 22 69
-10 0 -23 -3 -30 -6z"/>
<path d="M3916 3754 c-3 -9 -6 -26 -6 -39 0 -41 63 -60 94 -29 20 19 20 34 2
34 -8 0 -28 11 -44 25 -35 29 -38 30 -46 9z"/>
<path d="M6797 3743 c-25 -6 -57 -34 -57 -49 0 -16 24 -24 71 -24 33 0 40 4
45 25 12 48 -6 62 -59 48z"/>
<path d="M5596 3678 c-18 -29 -44 -77 -56 -106 -13 -29 -31 -57 -41 -63 -22
-11 -25 -39 -5 -39 49 0 159 100 142 129 -4 6 3 33 15 60 37 86 -3 100 -55 19z"/>
<path d="M5114 3675 c-3 -8 5 -34 18 -57 14 -24 35 -61 47 -83 27 -46 37 -55
69 -55 24 0 26 3 14 28 -5 9 -21 43 -37 75 -15 32 -43 69 -60 83 -37 28 -44
29 -51 9z"/>
<path d="M5743 3519 c-7 -7 -13 -19 -13 -27 0 -8 -11 -25 -25 -38 -29 -27 -32
-50 -7 -58 9 -3 26 -19 37 -35 13 -20 33 -33 62 -40 55 -14 53 -15 53 13 0 31
-15 42 -68 51 -37 6 -43 10 -40 28 3 25 50 36 72 18 22 -19 102 -25 108 -9 6
14 -14 83 -27 96 -13 13 -140 14 -152 1z"/>
<path d="M4925 3358 c-44 -40 -25 -54 51 -37 72 15 94 25 94 43 0 10 -17 15
-57 18 -51 3 -61 0 -88 -24z"/>
<path d="M5507 2658 c-24 -24 -45 -117 -31 -139 8 -13 113 -2 132 13 13 11 17
124 4 132 -4 2 -24 7 -44 11 -31 6 -41 3 -61 -17z"/>
<path d="M5120 2651 c-5 -11 -28 -41 -50 -66 -57 -66 -53 -113 14 -154 54 -34
117 -26 165 20 20 19 23 28 18 70 -13 104 -113 193 -147 130z"/>
</g>
</svg>
